{"asset":{"version":"2.0","generator":"THREE.GLTFExporter"},"scenes":[{"nodes":[0],"name":"AuxScene"}],"scene":0,"nodes":[{"mesh":0}],"bufferViews":[{"buffer":0,"byteOffset":0,"byteLength":13716,"target":34962,"byteStride":12},{"buffer":0,"byteOffset":13716,"byteLength":13716,"target":34962,"byteStride":12}],"buffers":[{"byteLength":27432,"uri":"data:application/octet-stream;base64,"}],"accessors":[{"bufferView":0,"componentType":5126,"count":1143,"max":[217.89898681640625,46.60672378540039,213.68740844726562],"min":[-235.10101318359375,1.306725025177002,-230.31259155273438],"type":"VEC3"},{"bufferView":1,"componentType":5126,"count":1143,"max":[0.2640495002269745,1,0.6541000008583069],"min":[-0.19606991112232208,0.7547327876091003,-0.2799210250377655],"type":"VEC3"}],"materials":[{"pbrMetallicRoughness":{"baseColorFactor":[0.5019607843137255,0.5019607843137255,0.5019607843137255,1],"metallicFactor":0,"roughnessFactor":1}}],"meshes":[{"primitives":[{"mode":4,"attributes":{"POSITION":0,"NORMAL":1},"material":0}]}]}