{"asset":{"version":"2.0","generator":"THREE.GLTFExporter"},"scenes":[{"nodes":[0],"name":"AuxScene"}],"scene":0,"nodes":[{"mesh":0}],"bufferViews":[{"buffer":0,"byteOffset":0,"byteLength":85788,"target":34962,"byteStride":12},{"buffer":0,"byteOffset":85788,"byteLength":85788,"target":34962,"byteStride":12}],"buffers":[{"byteLength":171576,"uri":"data:application/octet-stream;base64,"}],"accessors":[{"bufferView":0,"componentType":5126,"count":7149,"max":[189.51083374023438,96.15043640136719,189.5],"min":[-195.98916625976562,-9.649568557739258,-189.39999389648438],"type":"VEC3"},{"bufferView":1,"componentType":5126,"count":7149,"max":[0.8728650808334351,1,0.8447813987731934],"min":[-0.8783513903617859,0.14079909026622772,-0.9687389135360718],"type":"VEC3"}],"materials":[{"pbrMetallicRoughness":{"baseColorFactor":[0.5019607843137255,0.5019607843137255,0.5019607843137255,1],"metallicFactor":0,"roughnessFactor":1}}],"meshes":[{"primitives":[{"mode":4,"attributes":{"POSITION":0,"NORMAL":1},"material":0}]}]}