{
    "asset" : {
        "generator" : "Khronos glTF Blender I/O v1.6.16",
        "version" : "2.0"
    },
    "scene" : 0,
    "scenes" : [
        {
            "name" : "Scene",
            "nodes" : [
                0
            ]
        }
    ],
    "nodes" : [
        {
            "mesh" : 0,
            "name" : "Tree",
            "rotation" : [
                0.0014475919306278229,
                -0.004799158778041601,
                0.029595203697681427,
                0.9995495080947876
            ],
            "translation" : [
                4.112666606903076,
                19.44980239868164,
                -78.29662322998047
            ]
        }
    ],
    "materials" : [
        {
            "doubleSided" : true,
            "emissiveFactor" : [
                1,
                1,
                1
            ],
            "emissiveTexture" : {
                "index" : 0
            },
            "name" : "TREE",
            "pbrMetallicRoughness" : {}
        }
    ],
    "meshes" : [
        {
            "name" : "Circle.001",
            "primitives" : [
                {
                    "attributes" : {
                        "POSITION" : 0,
                        "NORMAL" : 1,
                        "TEXCOORD_0" : 2
                    },
                    "indices" : 3,
                    "material" : 0
                }
            ]
        }
    ],
    "textures" : [
        {
            "sampler" : 0,
            "source" : 0
        }
    ],
    "images" : [
        {
            "bufferView" : 4,
            "mimeType" : "image/png",
            "name" : "TREE"
        }
    ],
    "accessors" : [
        {
            "bufferView" : 0,
            "componentType" : 5126,
            "count" : 1006,
            "max" : [
                22.00684356689453,
                34.91404342651367,
                23.40582275390625
            ],
            "min" : [
                -20.97463035583496,
                -3.643922805786133,
                -21.12540626525879
            ],
            "type" : "VEC3"
        },
        {
            "bufferView" : 1,
            "componentType" : 5126,
            "count" : 1006,
            "type" : "VEC3"
        },
        {
            "bufferView" : 2,
            "componentType" : 5126,
            "count" : 1006,
            "type" : "VEC2"
        },
        {
            "bufferView" : 3,
            "componentType" : 5123,
            "count" : 2496,
            "type" : "SCALAR"
        }
    ],
    "bufferViews" : [
        {
            "buffer" : 0,
            "byteLength" : 12072,
            "byteOffset" : 0
        },
        {
            "buffer" : 0,
            "byteLength" : 12072,
            "byteOffset" : 12072
        },
        {
            "buffer" : 0,
            "byteLength" : 8048,
            "byteOffset" : 24144
        },
        {
            "buffer" : 0,
            "byteLength" : 4992,
            "byteOffset" : 32192
        },
        {
            "buffer" : 0,
            "byteLength" : 484039,
            "byteOffset" : 37184
        }
    ],
    "samplers" : [
        {
            "magFilter" : 9729,
            "minFilter" : 9987
        }
    ],
    "buffers" : [
        {
            "byteLength" : 521224,
            "uri" : "data:application/octet-stream;base64,"
        }
    ]
}
